<svg xmlns="http://www.w3.org/2000/svg">
  <symbol id="arrow" viewBox="0 0 8 12">
    <path d="M4.5 6L0.707106 2.20711C0.316582 1.81658 0.316582 1.18342 0.707107 0.792893L0.792893 0.707107C1.18342 0.316583 1.81658 0.316583 2.20711 0.707107L6.79289 5.29289C7.18342 5.68342 7.18342 6.31658 6.79289 6.70711L2.20711 11.2929C1.81658 11.6834 1.18342 11.6834 0.792893 11.2929L0.707107 11.2071C0.316583 10.8166 0.316583 10.1834 0.707107 9.79289L4.5 6Z"/>
  </symbol>
  <symbol id="callback" viewBox="0 0 18 18">
    <path fill-rule="evenodd" clip-rule="evenodd" d="M1.76019 12.25L4.30019 11.96C4.91019 11.89 5.51019 12.1 5.94019 12.53L7.78019 14.37C10.6102 12.93 12.9302 10.62 14.3702 7.78L12.5202 5.93C12.0902 5.5 11.8802 4.9 11.9502 4.29L12.2402 1.77C12.3602 0.76 13.2102 0 14.2302 0H15.9602C17.0902 0 18.0302 0.94 17.9602 2.07C17.4302 10.61 10.6002 17.43 2.07019 17.96C0.940193 18.03 0.00019455 17.09 0.00019455 15.96V14.23C-0.00980568 13.22 0.750193 12.37 1.76019 12.25Z"/>
  </symbol>
  <symbol id="checkstatus" viewBox="0 0 16 20">
    <path fill-rule="evenodd" clip-rule="evenodd" d="M0 1C0 0.447715 0.447715 0 1 0H15C15.5523 0 16 0.447716 16 1V18.5C15.1716 18.5 14.5 19.1715 14.5 19.9999H13.5C13.5 19.1715 12.8284 18.5 12 18.5C11.1716 18.5 10.5 19.1715 10.5 19.9999H9.5C9.49995 19.1715 8.8284 18.5 8 18.5C7.1716 18.5 6.50005 19.1715 6.5 19.9999H5.5C5.49995 19.1715 4.8284 18.5 4 18.5C3.1716 18.5 2.50005 19.1715 2.5 19.9999H1.5C1.49995 19.1715 0.828399 18.5 0 18.5V1ZM9.41631 11.7884C8.55357 12.3443 7.47034 12.5936 6.32961 12.3827C4.52743 12.0472 3.08953 10.5326 2.85946 8.71135C2.4952 5.82606 4.94922 3.42005 7.85379 3.88016C9.65596 4.16773 11.1034 5.64393 11.4006 7.43646C11.5828 8.5484 11.3239 9.57406 10.7871 10.4272L12.896 12.5265C13.2699 12.9003 13.2699 13.5138 12.896 13.8876C12.5126 14.2711 11.8991 14.2711 11.5252 13.8972L9.41631 11.7884ZM4.70582 8.05877C4.70582 6.75995 5.75994 5.70583 7.05876 5.70583C8.35758 5.70583 9.4117 6.75995 9.4117 8.05877C9.4117 9.3576 8.35758 10.4117 7.05876 10.4117C5.75994 10.4117 4.70582 9.3576 4.70582 8.05877Z"/>
  </symbol>
  <symbol id="close" viewBox="0 0 18 18">
    <path d="M2.79348 1.25712C2.40295 0.866593 1.76979 0.866592 1.37927 1.25712L1.25712 1.37927C0.866592 1.76979 0.866593 2.40296 1.25712 2.79348L7.46364 9L1.25712 15.2065C0.866593 15.597 0.866592 16.2302 1.25712 16.6207L1.37927 16.7429C1.76979 17.1334 2.40295 17.1334 2.79348 16.7429L9 10.5364L15.2065 16.7429C15.597 17.1334 16.2302 17.1334 16.6207 16.7429L16.7429 16.6207C17.1334 16.2302 17.1334 15.597 16.7429 15.2065L10.5364 9L16.7429 2.79348C17.1334 2.40296 17.1334 1.76979 16.7429 1.37927L16.6207 1.25712C16.2302 0.866592 15.597 0.866593 15.2065 1.25712L9 7.46364L2.79348 1.25712Z"/>
  </symbol>
  <symbol id="feedback" viewBox="0 0 20 20">
    <path d="M18 0H2C0.9 0 0.01 0.9 0.01 2L0 20L4 15H18C19.1 15 20 14.1 20 13V2C20 0.9 19.1 0 18 0ZM11 11H5C4.45 11 4 10.55 4 10C4 9.45 4.45 9 5 9H11C11.55 9 12 9.45 12 10C12 10.55 11.55 11 11 11ZM15 6H5C4.45 6 4 5.55 4 5C4 4.45 4.45 4 5 4H15C15.55 4 16 4.45 16 5C16 5.55 15.55 6 15 6Z"/>
  </symbol>
  <symbol id="menu" viewBox="0 0 18 16">
    <path d="M0 1C0 0.447715 0.447715 0 1 0H17C17.5523 0 18 0.447715 18 1C18 1.55228 17.5523 2 17 2H1C0.447716 2 0 1.55228 0 1ZM0 8C0 7.44772 0.447715 7 1 7H9C9.55228 7 10 7.44772 10 8C10 8.55229 9.55229 9 9 9H1C0.447715 9 0 8.55229 0 8ZM1 14C0.447715 14 0 14.4477 0 15C0 15.5523 0.447716 16 1 16H13C13.5523 16 14 15.5523 14 15C14 14.4477 13.5523 14 13 14H1Z"/>
  </symbol>
  <symbol id="offer" viewBox="0 0 8 12">
    <path d="M1.1625 9.60411C0.838186 9.97957 0.838186 10.536 1.1625 10.9115L1.29432 11.0641C1.69317 11.5258 2.40899 11.5258 2.80785 11.0641L6.8372 6.39937C7.16152 6.02392 7.16152 5.46745 6.8372 5.092L2.80785 0.427277C2.40899 -0.0344715 1.69317 -0.0344715 1.29432 0.427278L1.1625 0.57988C0.838185 0.955333 0.838186 1.5118 1.1625 1.88726L4.49539 5.74569L1.1625 9.60411Z"/>
  </symbol>
  <symbol id="profile" viewBox="0 0 20 18">
    <path d="M10.5 9C12.9853 9 15 6.98528 15 4.5C15 2.01472 12.9853 0 10.5 0C8.01472 0 6 2.01472 6 4.5C6 6.98528 8.01472 9 10.5 9Z"/>
    <path d="M0.0165859 16.6118C-0.113065 17.3412 0.535191 18 1.33903 18H18.6604C19.4902 18 20.1125 17.3412 19.9829 16.6118C19.2309 12.4 15.0561 10 9.99973 10C4.94333 10 0.768563 12.4 0.0165859 16.6118Z"/>
  </symbol>
  <symbol id="read-more" viewBox="0 0 8 11">
    <path d="M6.50008 0.500076L4.00008 3.00008L1.50008 0.500076C1.22393 0.223933 0.776218 0.223933 0.500076 0.500076C0.223933 0.776218 0.223933 1.22393 0.500075 1.50008L3.29297 4.29297C3.68349 4.68349 4.31666 4.68349 4.70718 4.29297L7.50008 1.50008C7.77622 1.22393 7.77622 0.776218 7.50008 0.500076C7.22393 0.223933 6.77622 0.223933 6.50008 0.500076ZM6.50008 6.50008L4.00008 9.00008L1.50008 6.50008C1.22393 6.22393 0.776218 6.22393 0.500076 6.50008C0.223933 6.77622 0.223933 7.22393 0.500075 7.50008L3.29297 10.293C3.68349 10.6835 4.31666 10.6835 4.70718 10.293L7.50008 7.50008C7.77622 7.22393 7.77622 6.77622 7.50008 6.50008C7.22393 6.22393 6.77622 6.22393 6.50008 6.50008Z"/>
  </symbol>
  <symbol id="search" viewBox="0 0 18 18">
    <path d="M12.5006 11.0006H11.7106L11.4306 10.7306C12.6306 9.33063 13.2506 7.42063 12.9106 5.39063C12.4406 2.61063 10.1206 0.390626 7.32063 0.0506256C3.09063 -0.469374 -0.469374 3.09063 0.0506256 7.32063C0.390626 10.1206 2.61063 12.4406 5.39063 12.9106C7.42063 13.2506 9.33063 12.6306 10.7306 11.4306L11.0006 11.7106V12.5006L15.2606 16.7506C15.6706 17.1606 16.3306 17.1606 16.7406 16.7506L16.7506 16.7406C17.1606 16.3306 17.1606 15.6706 16.7506 15.2606L12.5006 11.0006ZM6.50063 11.0006C4.01063 11.0006 2.00063 8.99063 2.00063 6.50063C2.00063 4.01063 4.01063 2.00063 6.50063 2.00063C8.99063 2.00063 11.0006 4.01063 11.0006 6.50063C11.0006 8.99063 8.99063 11.0006 6.50063 11.0006Z"/>
  </symbol>
  <symbol id="service" viewBox="0 0 20 20">
    <path d="M8.25807 13.4583L8.66685 13.0494L6.94998 11.3322L6.54121 11.7411L6.33682 11.5367C6.0098 11.1687 5.68278 10.9643 5.35575 11.0052C5.11049 11.0052 4.9061 11.1687 4.74259 11.414C4.49732 11.8229 4.61996 12.2726 4.66083 12.5588C4.66083 12.6406 4.70171 12.6815 4.70171 12.7632C4.70171 12.8859 4.70171 13.0494 4.41557 13.0903C4.00679 13.213 3.47538 13.3356 2.94397 13.6218C2.20817 14.0307 1.71764 14.3987 1.4315 14.7666C-0.0809772 16.7291 0.000778159 18.4055 0.000778159 18.4872C0.000778159 18.6099 0.0416558 18.6917 0.123411 18.7325L1.22711 19.8773C1.30886 19.9591 1.39062 20 1.47237 20C1.47237 20 1.51325 20 1.59501 20C2.00378 20 3.47538 19.9182 5.19224 18.569C5.56014 18.2828 5.92804 17.7922 6.33682 17.0562C6.62296 16.5656 6.78647 16.0341 6.86823 15.5844C6.94998 15.2982 7.07262 15.2982 7.19525 15.2982C7.23613 15.2982 7.31788 15.339 7.39964 15.339C7.56315 15.3799 7.72666 15.4208 7.93105 15.4208C8.13544 15.4208 8.33983 15.3799 8.54421 15.2573C8.78948 15.0937 8.95299 14.8893 8.99387 14.644C9.03475 14.3169 8.87123 13.9898 8.50334 13.7036L8.25807 13.4583Z"/>
    <path d="M16.884 4.87841L18.0188 4.32603C18.0609 4.28354 18.1449 4.24105 18.1869 4.19856L19.9101 1.86157C20.0362 1.69161 20.0362 1.43667 19.8681 1.3092L18.6913 0.119458C18.5652 -0.00801422 18.313 -0.0505049 18.1449 0.076967L15.8333 1.81908C15.7913 1.86157 15.7493 1.90406 15.7072 1.98905L15.1609 3.13629L11 7.21539L12.7652 9L16.884 4.87841Z"/>
    <path d="M17.8527 13.0448C16.8636 12.0036 15.4393 11.6288 14.0941 12.0036L7.64527 5.17331C7.72439 4.79848 7.76396 4.46529 7.76396 4.09046C7.76396 3.04926 7.36832 2.00806 6.61661 1.21675C5.58796 0.0922529 4.04498 -0.282579 2.6207 0.217197C2.54157 0.258845 2.42288 0.383789 2.38331 0.550381C2.38331 0.675325 2.42288 0.800269 2.50201 0.925213L4.44062 2.96597C4.87582 3.42409 4.87582 4.21541 4.44062 4.67353C4.00542 5.13166 3.25371 5.13166 2.81851 4.67353L0.8799 2.63278C0.76121 2.54949 0.642519 2.50784 0.484265 2.54949C0.365574 2.54949 0.246884 2.67443 0.20732 2.79937C-0.267442 4.25705 0.0886295 5.88133 1.11728 6.96417C1.82943 7.75549 2.85808 8.17197 3.88673 8.17197C4.20324 8.17197 4.55931 8.13032 4.87582 8.04702L11.3642 14.8773C11.0082 16.2933 11.4038 17.7927 12.3533 18.8339C13.105 19.6252 14.0546 20 15.0832 20C15.5184 20 15.914 19.9167 16.3492 19.7918C16.4679 19.7501 16.5866 19.6252 16.6262 19.5002C16.6658 19.3753 16.6262 19.2087 16.5075 19.1254L14.5689 17.0846C14.3711 16.8764 14.2128 16.5432 14.2128 16.21C14.2128 15.8768 14.3315 15.5853 14.5689 15.3354C14.8063 15.0855 15.0832 14.9606 15.3997 14.9606C15.7162 14.9606 15.9932 15.0855 16.2306 15.3354L18.1692 17.3762C18.2879 17.4595 18.4065 17.5011 18.5252 17.5011C18.6439 17.4595 18.7626 17.3762 18.8022 17.2512C18.9209 16.8348 19 16.3766 19 15.9185C19 14.8356 18.6044 13.7944 17.8527 13.0448Z"/>
  </symbol>
  <symbol id="to-order" viewBox="0 0 7 10">
    <path d="M3.8 4.99994L0.791554 2.229C0.3641 1.83529 0.361125 1.16138 0.785088 0.763917L0.920293 0.637162C1.30321 0.278177 1.89851 0.276333 2.28364 0.632939L6.93812 4.94264C6.9715 4.97355 6.9715 5.02633 6.93812 5.05723L2.34674 9.30851C1.92606 9.69803 1.27582 9.69601 0.857554 9.30389C0.394457 8.86974 0.397706 8.13363 0.864616 7.70358L3.8 4.99994Z"/>
  </symbol>
</svg>
